# xmcd CD database file
#
# Track frame offsets:
#	150
#	11335
#	21850
#	34558
#	44668
#	56365
#	67735
#	77918
#	89985
#	101428
#	111295
#	122558
#	136868
#	151763
#	163225
#
# Disc length: 2333 seconds
#
# Revision: 3
# Processed by: cddbd v1.5.2PL0 Copyright (c) Steve Scherf et al.
# Submitted via: CDex 1.50
#
DISCID=ba091b0f
DTITLE=The Drifters - Greatest Hits of The Drifters
DYEAR=1900
DGENRE=R&B
TTITLE0=Save The Last Dance For Me
TTITLE1=Dance With Me
TTITLE2=On Broadway
TTITLE3=There Goes My Baby
TTITLE4=Under The Boardwalk
TTITLE5=Up On The Roof
TTITLE6=Please Stay
TTITLE7=Sweets For My Sweet
TTITLE8=Another Saturday Night
TTITLE9=When My Little Girl Is Smiling
TTITLE10=Saturday Night At The Movies
TTITLE11=Night Moves
TTITLE12=Third Rate Romance
TTITLE13=Some Kind Of Wonderful
TTITLE14=This Magic Moment
EXTD=
EXTT0=
EXTT1=
EXTT2=
EXTT3=
EXTT4=
EXTT5=
EXTT6=
EXTT7=
EXTT8=
EXTT9=
EXTT10=
EXTT11=
EXTT12=
EXTT13=
EXTT14=
PLAYORDER=
